<svg width="12" height="16" viewBox="0 0 12 16" fill="none" xmlns="http://www.w3.org/2000/svg">
<path fill-rule="evenodd" clip-rule="evenodd" d="M3.675 0.5H8.3025C10.335 0.5 11.9775 1.3025 12 3.3425V14.7275C12 14.855 11.97 14.9825 11.91 15.095C11.8125 15.275 11.6475 15.41 11.445 15.47C11.25 15.53 11.0325 15.5 10.8525 15.395L5.9925 12.965L1.125 15.395C1.01325 15.4543 0.885 15.4925 0.7575 15.4925C0.3375 15.4925 0 15.1475 0 14.7275V3.3425C0 1.3025 1.65 0.5 3.675 0.5ZM3.16496 6.21503H8.81246C9.13496 6.21503 9.39746 5.95178 9.39746 5.62253C9.39746 5.29253 9.13496 5.03003 8.81246 5.03003H3.16496C2.84246 5.03003 2.57996 5.29253 2.57996 5.62253C2.57996 5.95178 2.84246 6.21503 3.16496 6.21503Z" fill="#F3E18F"/>
</svg>
