<svg width="40" height="40" viewBox="0 0 40 40" fill="none" xmlns="http://www.w3.org/2000/svg">
<rect x="0.5" y="0.5" width="39" height="39" rx="19.5" fill="#E0E1EB" fill-opacity="0.2" stroke="white"/>
<path d="M27.376 20.416L16.777 27.482C16.7017 27.5321 16.6142 27.5609 16.5239 27.5652C16.4336 27.5695 16.3437 27.5492 16.264 27.5065C16.1843 27.4639 16.1176 27.4003 16.0711 27.3228C16.0246 27.2452 16 27.1564 16 27.066V12.934C16 12.8436 16.0246 12.7548 16.0711 12.6773C16.1176 12.5997 16.1843 12.5362 16.264 12.4935C16.3437 12.4508 16.4336 12.4305 16.5239 12.4348C16.6142 12.4392 16.7017 12.4679 16.777 12.518L27.376 19.584C27.4445 19.6297 27.5006 19.6915 27.5395 19.7641C27.5783 19.8367 27.5986 19.9177 27.5986 20C27.5986 20.0823 27.5783 20.1633 27.5395 20.2359C27.5006 20.3085 27.4445 20.3703 27.376 20.416V20.416Z" fill="white"/>
</svg>
