<svg width="78" height="36" viewBox="0 0 78 36" fill="none" xmlns="http://www.w3.org/2000/svg">
<g filter="url(#filter0_b_9_7747)">
<rect width="78" height="36" rx="10" fill="white" fill-opacity="0.02"/>
<rect x="0.5" y="0.5" width="77" height="35" rx="9.5" stroke="white" stroke-opacity="0.25"/>
</g>
<path d="M33.6298 12.804L32.6218 14.496C31.8178 13.908 31.0018 13.518 30.1738 13.326V16.782C31.5538 17.142 32.5498 17.61 33.1618 18.186C33.7858 18.75 34.0918 19.512 34.0798 20.472V20.508C34.0798 21.468 33.7258 22.266 33.0178 22.902C32.3218 23.538 31.3978 23.904 30.2458 24V25.764H28.6798V23.964C27.0718 23.76 25.6558 23.166 24.4318 22.182L25.5838 20.526C26.6518 21.402 27.7078 21.93 28.7518 22.11V18.564C27.4078 18.228 26.4298 17.778 25.8178 17.214C25.2058 16.65 24.8998 15.87 24.8998 14.874V14.856C24.8998 13.896 25.2418 13.104 25.9258 12.48C26.6218 11.856 27.5398 11.496 28.6798 11.4V10.356H30.2458V11.436C31.4698 11.592 32.5978 12.048 33.6298 12.804ZM31.9558 20.634V20.598C31.9558 20.19 31.8238 19.86 31.5598 19.608C31.3078 19.344 30.8458 19.11 30.1738 18.906V22.182C30.7498 22.122 31.1878 21.96 31.4878 21.696C31.7998 21.42 31.9558 21.066 31.9558 20.634ZM27.0238 14.712V14.73C27.0238 15.126 27.1438 15.456 27.3838 15.72C27.6358 15.972 28.0918 16.2 28.7518 16.404V13.218C28.1878 13.278 27.7558 13.446 27.4558 13.722C27.1558 13.986 27.0118 14.316 27.0238 14.712ZM38.3026 24V13.56L36.0346 14.19L35.5666 12.39L38.9686 11.31H40.4986V24H38.3026ZM47.7074 24.216C45.9674 24.216 44.4254 23.574 43.0814 22.29L44.4494 20.688C45.5294 21.696 46.6094 22.2 47.6894 22.2C48.4454 22.2 49.0514 22.002 49.5074 21.606C49.9634 21.21 50.1914 20.682 50.1914 20.022V19.986C50.1914 19.35 49.9514 18.846 49.4714 18.474C48.9914 18.09 48.3614 17.898 47.5814 17.898C46.8254 17.898 46.0514 18.084 45.2594 18.456L43.9274 17.574L44.2874 11.4H51.8294V13.38H46.1954L45.9974 16.314C46.6574 16.074 47.3234 15.954 47.9954 15.954C49.2794 15.954 50.3294 16.296 51.1454 16.98C51.9734 17.652 52.3874 18.63 52.3874 19.914V19.95C52.3874 21.234 51.9554 22.266 51.0914 23.046C50.2394 23.826 49.1114 24.216 47.7074 24.216Z" fill="#F3E18F"/>
<defs>
<filter id="filter0_b_9_7747" x="-10" y="-10" width="98" height="56" filterUnits="userSpaceOnUse" color-interpolation-filters="sRGB">
<feFlood flood-opacity="0" result="BackgroundImageFix"/>
<feGaussianBlur in="BackgroundImage" stdDeviation="5"/>
<feComposite in2="SourceAlpha" operator="in" result="effect1_backgroundBlur_9_7747"/>
<feBlend mode="normal" in="SourceGraphic" in2="effect1_backgroundBlur_9_7747" result="shape"/>
</filter>
</defs>
</svg>
