<svg width="14" height="13" viewBox="0 0 14 13" fill="none" xmlns="http://www.w3.org/2000/svg">
<path d="M10.9456 8.09558C10.7729 8.26291 10.6936 8.50491 10.7329 8.74224L11.3256 12.0222C11.3756 12.3002 11.2583 12.5816 11.0256 12.7422C10.7976 12.9089 10.4943 12.9289 10.2456 12.7956L7.29292 11.2556C7.19026 11.2009 7.07626 11.1716 6.95959 11.1682H6.77892C6.71626 11.1776 6.65493 11.1976 6.59893 11.2282L3.64559 12.7756C3.49959 12.8489 3.33426 12.8749 3.17226 12.8489C2.77759 12.7742 2.51426 12.3982 2.57893 12.0016L3.17226 8.72158C3.21159 8.48224 3.13226 8.23891 2.95959 8.06891L0.552258 5.73558C0.350925 5.54024 0.280925 5.24691 0.372925 4.98224C0.462258 4.71824 0.690258 4.52558 0.965592 4.48224L4.27892 4.00158C4.53093 3.97558 4.75226 3.82224 4.86559 3.59558L6.32559 0.602243C6.36026 0.535576 6.40493 0.474243 6.45893 0.422243L6.51892 0.375576C6.55026 0.34091 6.58626 0.312243 6.62626 0.28891L6.69893 0.262243L6.81226 0.215576H7.09293C7.34359 0.241576 7.56426 0.391576 7.67959 0.615576L9.15893 3.59558C9.26559 3.81358 9.47293 3.96491 9.71226 4.00158L13.0256 4.48224C13.3056 4.52224 13.5396 4.71558 13.6323 4.98224C13.7196 5.24958 13.6443 5.54291 13.4389 5.73558L10.9456 8.09558Z" fill="#F3E18F"/>
</svg>
